Coordinates
version=1
nRows=16
nColumns=40
inDegrees=yes

Units are S.I. units (second, meters, Newtons, ...)
Angles are in degrees.

endheader
time	pelvis_tilt	pelvis_list	pelvis_rotation	pelvis_tx	pelvis_ty	pelvis_tz	hip_flexion_r	hip_adduction_r	hip_rotation_r	knee_angle_r	knee_angle_r_beta	ankle_angle_r	subtalar_angle_r	mtp_angle_r	hip_flexion_l	hip_adduction_l	hip_rotation_l	knee_angle_l	knee_angle_l_beta	ankle_angle_l	subtalar_angle_l	mtp_angle_l	lumbar_extension	lumbar_bending	lumbar_rotation	arm_flex_r	arm_add_r	arm_rot_r	elbow_flex_r	pro_sup_r	wrist_flex_r	wrist_dev_r	arm_flex_l	arm_add_l	arm_rot_l	elbow_flex_l	pro_sup_l	wrist_flex_l	wrist_dev_l
      5.97000000	     -3.07029170	     -2.33875005	      2.10421990	      0.72598809	      0.92823221	      0.43918057	     28.83510007	     -7.55224734	     -4.50930053	     71.19268393	     71.19268393	     -2.46764446	    -17.76129637	      3.57475997	     15.72238056	     -0.73794029	     -1.97663679	     23.89352070	     23.89352070	     13.94612877	     -9.66536086	      1.67126683	    -10.25876115	      5.45086329	      0.48243853	      4.67358022	    -15.97341076	    -20.43776427	     26.89312676	     45.74562735	      0.00000000	      0.00000000	     -0.01935548	    -14.62599870	     -4.32506008	     62.85432485	     46.26633045	      0.00000000	      0.00000000
      5.98342857	     -3.09139762	     -2.47137665	      1.82319530	      0.72472465	      0.92927439	      0.43951981	     30.10369538	     -7.23236283	     -4.63036212	     70.04163637	     70.04163637	     -2.09301923	    -17.61025551	      3.27963935	     14.91320134	     -0.90606242	     -2.06982160	     23.17433020	     23.17433020	     14.08984213	     -9.67606058	      1.78934090	    -10.31244943	      5.54482195	      0.36158649	      3.19120759	    -15.72831550	    -20.30228014	     25.95965968	     45.77866511	      0.00000000	      0.00000000	      0.41220089	    -14.76686304	     -4.49618707	     63.25765996	     46.30179395	      0.00000000	      0.00000000
      5.99685714	     -3.08470621	     -2.62986183	      1.53361478	      0.72353453	      0.93029473	      0.43994459	     31.19282377	     -6.84403450	     -4.76515337	     68.62001549	     68.62001549	     -1.78414958	    -17.46745179	      3.00674776	     14.05864597	     -1.12914909	     -2.26374021	     22.43283614	     22.43283614	     14.24203710	     -9.50072364	      1.75998332	    -10.40279422	      5.67371516	      0.23143864	      1.69294681	    -15.47854945	    -20.09310788	     25.22589418	     45.79653707	      0.00000000	      0.00000000	      0.77215203	    -14.94691212	     -4.65528715	     63.72167824	     46.33672444	      0.00000000	      0.00000000
      6.01028571	     -3.17286934	     -2.81344178	      1.28387921	      0.72226304	      0.93101951	      0.44043525	     32.26009816	     -6.45465822	     -4.98733460	     66.96197503	     66.96197503	     -1.44597754	    -17.21470485	      2.95664634	     13.39541187	     -1.37025984	     -2.40734569	     21.82838363	     21.82838363	     14.43919243	     -9.35143932	      1.73782909	    -10.37247254	      5.83480817	     -0.14556620	      0.31734461	    -15.14583967	    -20.00196121	     24.70398048	     45.80490041	      0.00000000	      0.00000000	      0.97513139	    -15.25779577	     -4.81735151	     63.99605398	     46.35854463	      0.00000000	      0.00000000
      6.02371429	     -3.07770859	     -2.92939779	      0.95051299	      0.72122190	      0.93203017	      0.44107259	     32.93325372	     -6.03385573	     -5.06966940	     64.91405031	     64.91405031	     -1.16153858	    -17.02242172	      2.81243778	     12.36426871	     -1.57094568	     -2.74200051	     20.94381892	     20.94381892	     14.52593354	     -9.03763048	      1.59443020	    -10.57201119	      5.90569673	     -0.02029063	     -1.25573270	    -14.95396766	    -19.72127437	     24.14119014	     45.80667944	      0.00000000	      0.00000000	      1.41570336	    -15.29490706	     -4.95003747	     64.70924158	     46.39401917	      0.00000000	      0.00000000
      6.03714286	     -3.05698504	     -3.04014177	      0.64518293	      0.72012962	      0.93270367	      0.44184189	     33.52875811	     -5.64298158	     -5.21950461	     62.53468318	     62.53468318	     -0.86919030	    -16.75254534	      2.57376307	     11.48308403	     -1.76235596	     -3.08219589	     20.16501821	     20.16501821	     14.60726738	     -8.77070373	      1.25279436	    -10.67914362	      5.97670863	     -0.01736109	     -2.76453681	    -14.68668115	    -19.36573813	     23.82909016	     45.79499816	      0.00000000	      0.00000000	      1.75252751	    -15.44840985	     -5.01154758	     65.35240977	     46.42632332	      0.00000000	      0.00000000
      6.05057143	     -3.25622342	     -3.15253387	      0.37402888	      0.71885656	      0.93282708	      0.44270668	     34.25429753	     -5.31743065	     -5.46781531	     59.87565406	     59.87565406	     -0.51527174	    -16.24485287	      2.60470780	     11.00809424	     -1.94384056	     -3.24499823	     19.66363812	     19.66363812	     14.78046020	     -8.63732690	      1.11738934	    -10.52750617	      6.01651495	     -0.38722163	     -3.99526200	    -14.27225096	    -19.26627040	     23.51455763	     45.79401782	      0.00000000	      0.00000000	      1.89370999	    -15.78355947	     -5.12999315	     65.60344121	     46.44352240	      0.00000000	      0.00000000
      6.06400000	     -3.18079699	     -3.21252019	      0.04696168	      0.71784044	      0.93335401	      0.44366126	     34.42055628	     -4.96867193	     -5.63297749	     56.70096940	     56.70096940	     -0.22120516	    -15.76015699	      2.30742567	     10.03165667	     -2.08455825	     -3.62911839	     18.81585787	     18.81585787	     14.84963820	     -8.26544736	      0.72819639	    -10.73650169	      6.05173248	     -0.31100137	     -5.33206356	    -14.01928264	    -19.03671362	     23.38776303	     45.78223362	      0.00000000	      0.00000000	      2.23388756	    -15.79597544	     -5.14329865	     66.30158319	     46.46899131	      0.00000000	      0.00000000
      6.07742857	     -3.44616109	     -3.23300133	     -0.25099823	      0.71658322	      0.93305819	      0.44484516	     34.85385370	     -4.70463292	     -5.89497345	     53.26936742	     53.26936742	      0.17450010	    -15.02122937	      2.29302387	      9.65340124	     -2.18626495	     -3.89986579	     18.36105448	     18.36105448	     15.01136859	     -8.15197757	      0.50294469	    -10.52792802	      5.95218302	     -0.57358167	     -6.42206951	    -13.52763846	    -18.95334855	     23.19528185	     45.77816630	      0.00000000	      0.00000000	      2.39338375	    -16.09329026	     -5.23377190	     66.60310651	     46.48491758	      0.00000000	      0.00000000
      6.09085714	     -3.40081529	     -3.22866523	     -0.57714974	      0.71561997	      0.93309374	      0.44599442	     34.50729354	     -4.45604617	     -6.24385393	     49.00487899	     49.00487899	     -0.89902765	    -14.79156550	     -2.14224245	      8.63884437	     -2.25206038	     -4.32776975	     17.31324627	     17.31324627	     14.21301588	     -8.09950719	     -2.01716238	    -10.73939767	      5.91167427	     -0.20926560	     -8.46589628	    -13.25413853	    -17.85867381	     25.02126799	     45.70314291	      0.00000000	      0.00000000	      2.84048821	    -16.21159248	     -4.53104644	     67.45473066	     46.55503959	      0.00000000	      0.00000000
      6.10428571	     -3.61052841	     -3.20202163	     -0.85451262	      0.71449229	      0.93260684	      0.44725407	     34.44795376	     -4.21863343	     -6.61341805	     44.82656951	     44.82656951	     -0.48648372	    -13.57131506	     -1.91422248	      8.20984293	     -2.29672353	     -4.56976372	     16.89495251	     16.89495251	     14.45576815	     -7.96014341	     -2.14209079	    -10.57567388	      5.80995514	     -0.40856928	     -9.29018642	    -12.85323414	    -17.78855176	     24.77711555	     45.70886864	      0.00000000	      0.00000000	      3.04183536	    -16.30267316	     -4.60230481	     67.73773215	     46.57150370	      0.00000000	      0.00000000
      6.11771429	     -3.71134340	     -3.14615524	     -1.14155984	      0.71358378	      0.93216167	      0.44853055	     34.02281946	     -4.01373824	     -7.09506595	     40.33019004	     40.33019004	     -0.14267773	    -11.91321668	     -1.83460732	      7.58232296	     -2.30842683	     -4.88696094	     16.36996267	     16.36996267	     14.71599084	     -7.66321753	     -2.41904849	    -10.57863703	      5.72133726	     -0.45453807	    -10.03435751	    -12.44921308	    -17.73572184	     24.61229341	     45.71608039	      0.00000000	      0.00000000	      3.29606167	    -16.29688974	     -4.63956448	     68.14974119	     46.58999864	      0.00000000	      0.00000000
      6.13114286	     -3.77268545	     -2.97515835	     -1.44541145	      0.71283552	      0.93156753	      0.44989528	     33.37245093	     -3.94564168	     -7.75270237	     35.69399710	     35.69399710	      0.03654844	     -9.77860483	     -2.14987271	      6.88110466	     -2.21982452	     -5.41319510	     15.79106471	     15.79106471	     14.83337764	     -7.19532743	     -3.06909586	    -10.61928754	      5.47442771	     -0.38160757	    -10.74416211	    -11.98131499	    -17.71529870	     24.61721422	     45.73310087	      0.00000000	      0.00000000	      3.58334318	    -16.28594092	     -4.62008913	     68.66671674	     46.61820244	      0.00000000	      0.00000000
      6.14457143	     -3.94276632	     -2.89450073	     -1.69055785	      0.71221481	      0.93066501	      0.45133893	     32.66816256	     -3.66479581	     -8.32635626	     31.02047205	     31.02047205	      0.13136826	     -7.88779413	     -1.65299141	      6.42050513	     -2.20916481	     -5.64514931	     15.46547821	     15.46547821	     15.08703281	     -7.07377177	     -3.46209246	    -10.47135365	      5.37062965	     -0.48356510	    -11.22323089	    -11.60898730	    -17.71103383	     24.54692489	     45.74079517	      0.00000000	      0.00000000	      3.74847947	    -16.23025224	     -4.57488863	     68.97844748	     46.63000965	      0.00000000	      0.00000000
      6.15800000	     -4.02825244	     -2.73446930	     -1.92994365	      0.71188022	      0.92969418	      0.45280735	     31.79476880	     -3.48572557	     -9.02649826	     26.60965535	     26.60965535	      0.24488656	     -5.63768862	     -0.95519485	      5.82587507	     -2.11345578	     -5.96320978	     15.09345411	     15.09345411	     15.33378586	     -6.84445705	     -3.92738533	    -10.41322913	      5.17499507	     -0.49078693	    -11.58426187	    -11.21305481	    -17.69885708	     24.50698350	     45.74727597	      0.00000000	      0.00000000	      3.95162875	    -16.14452700	     -4.52851969	     69.32367569	     46.64241956	      0.00000000	      0.00000000
      6.17142857	     -4.02498740	     -2.55309377	     -2.16553781	      0.71188836	      0.92867174	      0.45435477	     30.84327515	     -3.34541552	     -9.86732000	     22.72386914	     22.72386914	      0.37236051	     -3.23683846	      0.03274558	      5.10256956	     -1.99644481	     -6.31744187	     14.70615416	     14.70615416	     15.60432662	     -6.56828368	     -4.48983933	    -10.40689390	      4.93029075	     -0.44881526	    -11.83413292	    -10.87602145	    -17.68150059	     24.50695010	     45.75400133	      0.00000000	      0.00000000	      4.12830570	    -16.00104203	     -4.45865548	     69.66378044	     46.65390357	      0.00000000	      0.00000000
